<?xml version="1.0" encoding="UTF-8" standalone="no"?><!DOCTYPE svg PUBLIC "-//W3C//DTD SVG 1.1//EN" "http://www.w3.org/Graphics/SVG/1.1/DTD/svg11.dtd"><svg width="100%" height="100%" viewBox="0 0 1754 549" version="1.1" xmlns="http://www.w3.org/2000/svg" xmlns:xlink="http://www.w3.org/1999/xlink" xml:space="preserve" xmlns:serif="http://www.serif.com/" style="fill-rule:evenodd;clip-rule:evenodd;stroke-linejoin:round;stroke-miterlimit:2;"><g><g><path d="M737.149,295.113c2.089,-0 3.693,0.709 4.812,2.126c1.119,1.417 2.126,2.947 3.021,4.588c0.895,1.492 2.685,4.961 5.371,10.406c2.685,5.446 5.222,10.817 7.609,16.113c2.387,5.297 3.581,8.542 3.581,9.736c-0,2.237 -1.269,4.401 -3.805,6.49c-10.593,8.056 -23.797,14.136 -39.612,18.239c-15.814,4.103 -30.361,6.154 -43.64,6.154c-31.331,0 -58.223,-7.087 -80.678,-21.26c-22.454,-14.174 -39.686,-33.346 -51.696,-57.516c-12.01,-24.169 -18.016,-51.323 -18.016,-81.461c0,-21.633 3.171,-42.111 9.512,-61.432c6.341,-19.32 15.628,-36.403 27.862,-51.249c12.234,-14.845 27.266,-26.482 45.095,-34.912c17.829,-8.429 38.231,-12.644 61.208,-12.644c13.577,0 28.049,1.865 43.416,5.595c15.367,3.73 28.72,9.325 40.059,16.785c2.984,1.939 4.476,4.177 4.476,6.713c-0,0.746 -0.709,2.91 -2.126,6.49c-1.417,3.581 -3.096,7.647 -5.035,12.197c-1.94,4.551 -3.768,8.691 -5.483,12.421c-1.716,3.73 -2.872,6.192 -3.469,7.385c-0.746,1.492 -1.679,3.021 -2.798,4.588c-1.119,1.566 -2.723,2.35 -4.811,2.35c-1.343,-0 -2.574,-0.336 -3.693,-1.007c-1.119,-0.672 -2.275,-1.306 -3.469,-1.903c-8.504,-5.371 -17.12,-9.66 -25.848,-12.868c-8.728,-3.208 -18.239,-4.811 -28.534,-4.811c-13.875,-0 -26.258,3.095 -37.15,9.287c-10.891,6.192 -20.104,14.435 -27.638,24.729c-7.535,10.295 -13.242,21.709 -17.121,34.241c-3.879,12.533 -5.818,25.065 -5.818,37.598c-0,18.948 3.319,36.515 9.958,52.703c6.64,16.188 16.748,29.243 30.325,39.164c13.577,9.922 30.66,14.883 51.249,14.883c10.443,-0 20.104,-1.418 28.981,-4.252c8.877,-2.835 17.643,-7.013 26.296,-12.533c1.194,-0.746 2.387,-1.455 3.581,-2.126c1.193,-0.671 2.536,-1.007 4.028,-1.007Z" style="fill:#4464f9;fill-rule:nonzero;stroke:#123af7;stroke-width:1px;"/><path d="M802.721,52.072c-0,-6.117 3.058,-9.176 9.175,-9.176l35.36,0c6.117,0 9.176,3.059 9.176,9.176c-0,25.363 -0.075,50.727 -0.224,76.09c-0.149,25.363 -0.224,50.727 -0.224,76.09c0,25.364 0.075,50.727 0.224,76.09c0.149,25.364 0.224,50.727 0.224,76.091c-0,6.117 -3.059,9.175 -9.176,9.175l-35.36,0c-6.117,0 -9.175,-3.058 -9.175,-9.175c-0,-25.364 0.074,-50.727 0.224,-76.091c0.149,-25.363 0.223,-50.726 0.223,-76.09c0,-25.363 -0.074,-50.727 -0.223,-76.09c-0.15,-25.363 -0.224,-50.727 -0.224,-76.09Z" style="fill:#4464f9;fill-rule:nonzero;stroke:#123af7;stroke-width:1px;"/><path d="M981.309,369.86c-19.395,0 -35.658,-4.625 -48.787,-13.875c-13.129,-9.25 -23.014,-21.521 -29.653,-36.814c-6.639,-15.293 -9.959,-31.891 -9.959,-49.794l0,-3.581c0.299,-18.799 4.215,-36.479 11.749,-53.04c7.535,-16.56 18.463,-29.951 32.786,-40.171c14.323,-10.22 31.63,-15.33 51.921,-15.33c12.532,0 24.207,2.35 35.024,7.05c10.816,4.7 20.924,11.078 30.324,19.134c1.044,1.045 1.939,1.567 2.685,1.567c1.791,-0 2.649,-1.865 2.574,-5.595c-0.075,-3.73 0.448,-7.46 1.567,-11.19c1.119,-3.73 4.065,-5.595 8.839,-5.595l31.556,0c6.117,0 9.175,3.059 9.175,9.176c0,6.415 -0.224,32.077 -0.224,38.493c0,16.411 0.112,32.898 0.336,49.458c0.224,16.561 0.41,33.047 0.559,49.459c0.15,7.758 0.336,15.554 0.56,23.387c0.224,7.832 0.336,15.702 0.336,23.61c-0,6.266 -3.059,9.399 -9.176,9.399l-35.136,0c-4.028,0 -6.639,-1.305 -7.833,-3.916c-1.193,-2.611 -1.715,-5.707 -1.566,-9.288c0.149,-3.58 0.149,-6.788 -0,-9.623c-0,-0.447 -0.075,-1.193 -0.224,-2.238c-0.149,-1.044 -0.597,-1.566 -1.343,-1.566c-0.596,-0 -1.156,0.224 -1.678,0.671c-0.522,0.448 -1.007,0.821 -1.455,1.119c-10.444,8.803 -21.708,15.852 -33.793,21.149c-12.085,5.296 -25.139,7.944 -39.164,7.944Zm22.827,-47.668c10.593,0 20.403,-2.201 29.429,-6.602c9.027,-4.401 16.076,-11.376 21.149,-20.925c0.298,-0.596 1.007,-2.126 2.126,-4.587c1.119,-2.462 1.678,-3.991 1.678,-4.588c0,-5.222 -0.223,-26.035 -0.223,-31.108c-0,-2.387 0.074,-5.035 0.223,-7.944c0.15,-2.91 0.075,-5.483 -0.223,-7.721c-0.15,-1.045 -0.709,-2.611 -1.679,-4.7c-0.97,-2.089 -1.678,-3.581 -2.126,-4.476c-5.222,-9.399 -12.607,-16.412 -22.156,-21.037c-9.548,-4.625 -19.544,-6.937 -29.988,-6.937c-11.041,-0 -20.738,2.76 -29.093,8.28c-8.355,5.52 -14.883,12.794 -19.583,21.82c-4.699,9.027 -7.049,18.911 -7.049,29.653c-0,10.742 2.462,20.738 7.385,29.988c4.924,9.251 11.749,16.71 20.477,22.38c8.728,5.669 18.613,8.504 29.653,8.504Z" style="fill:#4464f9;fill-rule:nonzero;stroke:#123af7;stroke-width:1px;"/><path d="M1195.03,162.626c5.67,0 8.728,2.761 9.176,8.281l2.238,25.512c-0,0.15 0.149,1.231 0.447,3.245c0.299,2.015 0.821,3.022 1.567,3.022c0.746,-0 1.529,-0.821 2.35,-2.462c0.82,-1.641 1.305,-2.611 1.454,-2.909c6.117,-11.489 13.577,-20.515 22.38,-27.08c8.802,-6.564 19.918,-9.847 33.345,-9.847c3.133,0 7.124,0.262 11.973,0.784c4.849,0.522 7.274,3.021 7.274,7.497c-0,2.238 -0.448,5.744 -1.343,10.518c-0.895,4.775 -1.902,9.586 -3.021,14.435c-1.119,4.849 -1.977,8.542 -2.574,11.078c-0.597,2.536 -1.529,4.513 -2.797,5.93c-1.269,1.418 -3.395,2.126 -6.379,2.126c-1.492,0 -7.31,-0.671 -8.951,-0.671c-11.787,0 -21.709,3.693 -29.765,11.078c-8.057,7.385 -14.099,16.449 -18.128,27.191c-4.028,10.742 -6.042,21.335 -6.042,31.779l0,74.3c0,6.117 -3.058,9.175 -9.176,9.175l-34.688,0c-6.117,0 -9.175,-3.133 -9.175,-9.399c-0,-23.126 0.112,-46.214 0.335,-69.265c0.224,-23.05 0.336,-46.064 0.336,-69.04l0,-46.102c0,-6.117 3.059,-9.176 9.176,-9.176l29.988,0Z" style="fill:#4464f9;fill-rule:nonzero;stroke:#123af7;stroke-width:1px;"/><path d="M1307.15,86.312c0,-8.205 3.059,-15.255 9.176,-21.148c6.117,-5.893 13.278,-8.84 21.484,-8.84c8.355,-0 15.703,3.021 22.044,9.064c6.341,6.042 9.511,13.315 9.511,21.82c0,8.205 -3.021,15.33 -9.063,21.372c-6.043,6.042 -13.242,9.064 -21.597,9.064c-8.504,-0 -15.889,-3.096 -22.155,-9.288c-6.267,-6.191 -9.4,-13.539 -9.4,-22.044Zm3.357,134.949l0,-49.459c0,-6.117 3.059,-9.176 9.176,-9.176l34.464,0c6.117,0 9.176,3.059 9.176,9.176c-0,30.734 0.074,61.506 0.224,92.315c0.149,30.809 0.223,61.581 0.223,92.316c0,6.117 -3.058,9.175 -9.175,9.175l-35.36,0c-6.117,0 -9.175,-3.058 -9.175,-9.175c-0,-22.529 0.074,-45.058 0.223,-67.586c0.15,-22.529 0.224,-45.058 0.224,-67.586Z" style="fill:#4464f9;fill-rule:nonzero;stroke:#123af7;stroke-width:1px;"/><path d="M1432.7,159.493c0,-12.831 -0.074,-25.624 -0.224,-38.381c-0.149,-12.756 -0.223,-25.475 -0.223,-38.157c-0,-6.117 3.058,-9.175 9.175,-9.175l35.136,-0c6.117,-0 9.176,3.058 9.176,9.175c-0,12.682 -0.038,25.401 -0.112,38.157c-0.075,12.757 -0.112,25.55 -0.112,38.381c-0,1.791 0.97,2.686 2.909,2.686l35.136,-0c6.117,-0 9.175,3.058 9.175,9.175c0,4.626 -0.223,23.424 -0.223,28.199c-0,6.117 -3.059,9.175 -9.176,9.175l-34.912,0c-1.939,0 -2.909,0.895 -2.909,2.686c-0,24.17 0.074,48.339 0.224,72.509c0.149,24.17 0.223,48.34 0.223,72.51c0,6.117 -3.058,9.175 -9.175,9.175l-35.584,0c-6.117,0 -9.175,-3.058 -9.175,-9.175c-0,-24.17 0.112,-48.34 0.336,-72.51c0.223,-24.17 0.335,-48.339 0.335,-72.509c0,-2.238 -1.566,-3.32 -4.699,-3.245c-3.134,0.074 -6.714,0.335 -10.743,0.783c-4.028,0.448 -7.609,0.149 -10.742,-0.895c-3.133,-1.045 -4.699,-3.879 -4.699,-8.504l-0,-28.199c-0,-6.117 3.058,-9.175 9.175,-9.175l18.799,-0c1.939,-0 2.909,-0.895 2.909,-2.686Z" style="fill:#4464f9;fill-rule:nonzero;stroke:#123af7;stroke-width:1px;"/><path d="M1601.89,439.908c-2.089,0 -4.327,-0.373 -6.714,-1.119c-2.387,-0.746 -3.581,-2.536 -3.581,-5.371c0,-1.193 0.187,-2.312 0.56,-3.357c0.373,-1.044 0.783,-2.089 1.231,-3.133c5.669,-12.98 11.525,-25.886 17.568,-38.716c6.042,-12.831 11.898,-25.737 17.568,-38.717l-0,-2.014c-12.384,-28.646 -24.767,-57.292 -37.15,-85.937c-12.384,-28.646 -24.692,-57.366 -36.926,-86.161c-1.045,-2.387 -1.567,-4.476 -1.567,-6.267c-0,-2.834 1.156,-4.625 3.469,-5.371c2.312,-0.746 4.513,-1.119 6.602,-1.119l39.164,0c2.387,0 4.14,0.485 5.259,1.455c1.119,0.97 2.201,2.425 3.245,4.364c2.536,5.073 4.812,10.369 6.826,15.89c2.014,5.52 3.991,10.891 5.93,16.113c5.222,12.98 10.332,25.997 15.33,39.052c4.998,13.055 10.258,25.997 15.778,38.828c0.298,0.448 0.671,1.082 1.119,1.903c0.447,0.82 0.97,1.23 1.566,1.23c0.597,0 1.119,-0.373 1.567,-1.119c0.448,-0.746 0.746,-1.342 0.895,-1.79c5.968,-12.831 11.712,-25.848 17.232,-39.052c5.521,-13.204 11.115,-26.296 16.785,-39.276c2.238,-5.222 4.439,-10.63 6.602,-16.225c2.163,-5.595 4.588,-10.929 7.273,-16.002c2.089,-3.58 4.924,-5.371 8.504,-5.371l27.751,0c2.238,0 4.476,0.373 6.714,1.119c2.238,0.746 3.357,2.537 3.357,5.371c-0,1.791 -0.522,3.88 -1.567,6.267c-10.891,26.557 -21.969,53.039 -33.233,79.447c-11.265,26.408 -22.417,52.89 -33.458,79.447c-4.625,11.19 -9.287,22.342 -13.987,33.457c-4.7,11.115 -9.437,22.193 -14.211,33.234c-2.387,5.52 -4.737,11.115 -7.049,16.784c-2.313,5.67 -4.737,11.19 -7.274,16.561c-1.79,3.73 -4.625,5.595 -8.504,5.595l-32.674,0Z" style="fill:#4464f9;fill-rule:nonzero;stroke:#123af7;stroke-width:1px;"/></g><g id="mvc-framework-text"><path d="M626.348,442.83l-27.75,0l-0,-8l64.75,0l-0,8l-27.75,0l-0,79.5l-9.25,0l-0,-79.5Z" style="fill:#4464f9;fill-rule:nonzero;stroke:#123af7;stroke-width:1.52px;"/><path d="M682.848,523.33c-7,-0 -12.625,-2.062 -16.875,-6.187c-4.25,-4.125 -6.375,-9.605 -6.375,-16.438l-0,-17.875c-0,-7.167 2.125,-12.937 6.375,-17.312c4.25,-4.375 9.875,-6.563 16.875,-6.563l10.25,0c6.667,0 12.042,2.125 16.125,6.375c4.083,4.25 6.125,9.875 6.125,16.875l-0,11l-46.75,0l-0,7.5c-0,4.333 1.312,7.854 3.937,10.563c2.625,2.708 6.063,4.062 10.313,4.062l9.5,0c4.167,0 7.542,-1.146 10.125,-3.437c2.583,-2.292 3.875,-5.355 3.875,-9.188l8.75,0c-0,6.167 -2.083,11.146 -6.25,14.938c-4.167,3.791 -9.667,5.687 -16.5,5.687l-9.5,-0Zm23.5,-37.875l-0,-3.25c-0,-4.583 -1.208,-8.271 -3.625,-11.062c-2.417,-2.792 -5.625,-4.188 -9.625,-4.188l-10.25,0c-4.25,0 -7.688,1.458 -10.313,4.375c-2.625,2.917 -3.937,6.75 -3.937,11.5l-0,2.625l37.75,0Z" style="fill:#4464f9;fill-rule:nonzero;stroke:#123af7;stroke-width:1.52px;"/><path d="M799.473,458.955c5.5,0 9.854,1.771 13.062,5.313c3.209,3.541 4.813,8.437 4.813,14.687l-0,43.375l-9,0l-0,-43.625c-0,-3.667 -0.834,-6.542 -2.5,-8.625c-1.667,-2.083 -3.875,-3.125 -6.625,-3.125l-7.125,0c-3.584,0 -6.542,1.208 -8.875,3.625c-2.333,2.417 -3.833,5.833 -4.5,10.25l-0,41.5l-9,0l-0,-42.875c-0,-3.917 -0.771,-6.979 -2.313,-9.187c-1.541,-2.209 -3.645,-3.313 -6.312,-3.313l-7.125,0c-3.417,0 -6.417,1.5 -9,4.5c-2.583,3 -4.208,6.917 -4.875,11.75l-0,39.125l-9,0l-0,-62.375l8.75,0l-0,9c1.667,-3.167 3.75,-5.625 6.25,-7.375c2.5,-1.75 5.125,-2.625 7.875,-2.625l7.375,0c3.5,0 6.521,0.854 9.062,2.563c2.542,1.708 4.48,4.187 5.813,7.437c1.917,-3.333 4.208,-5.833 6.875,-7.5c2.666,-1.667 5.583,-2.5 8.75,-2.5l7.625,0Z" style="fill:#4464f9;fill-rule:nonzero;stroke:#123af7;stroke-width:1.52px;"/><path d="M835.598,459.955l8.75,0l-0,8.5c1.75,-2.833 4.062,-5.125 6.937,-6.875c2.875,-1.75 5.771,-2.625 8.688,-2.625l9,0c6.666,0 12.062,2.125 16.187,6.375c4.125,4.25 6.188,9.875 6.188,16.875l-0,15.375c-0,7.75 -2.104,13.979 -6.313,18.688c-4.208,4.708 -9.771,7.062 -16.687,7.062l-9,-0c-2.584,-0 -5.292,-0.729 -8.125,-2.187c-2.834,-1.459 -5.042,-3.355 -6.625,-5.688l-0,31.75l-9,-0l-0,-87.25Zm32.5,55.375c4.333,0 7.791,-1.625 10.375,-4.875c2.583,-3.25 3.875,-7.542 3.875,-12.875l-0,-15.375c-0,-4.583 -1.25,-8.271 -3.75,-11.062c-2.5,-2.792 -5.792,-4.188 -9.875,-4.188l-8.75,0c-3.5,0 -6.667,1.354 -9.5,4.063c-2.834,2.708 -4.792,6.187 -5.875,10.437l-0,18.75c0.583,4.417 2.291,8.042 5.125,10.875c2.833,2.833 6.208,4.25 10.125,4.25l8.25,0Z" style="fill:#4464f9;fill-rule:nonzero;stroke:#123af7;stroke-width:1.52px;"/><path d="M925.098,522.33c-6.167,-0 -10.584,-1.312 -13.25,-3.937c-2.667,-2.625 -4,-6.98 -4,-13.063l-0,-70.5l9,0l-0,70.5c-0,3.167 0.646,5.458 1.937,6.875c1.292,1.417 3.396,2.125 6.313,2.125l4.25,0l-0,8l-4.25,-0Z" style="fill:#4464f9;fill-rule:nonzero;stroke:#123af7;stroke-width:1.52px;"/><path d="M959.348,523.33c-6.084,-0 -10.938,-1.583 -14.563,-4.75c-3.625,-3.167 -5.437,-7.417 -5.437,-12.75l-0,-4c-0,-5.25 1.875,-9.458 5.625,-12.625c3.75,-3.167 8.708,-4.75 14.875,-4.75l8,0c2.75,0 5.583,0.417 8.5,1.25c2.916,0.833 5.416,1.958 7.5,3.375l-0,-10.375c-0,-3.5 -1.084,-6.354 -3.25,-8.562c-2.167,-2.209 -5.042,-3.313 -8.625,-3.313l-10,0c-3.584,0 -6.459,0.833 -8.625,2.5c-2.167,1.667 -3.25,3.875 -3.25,6.625l-9,0c-0,-5.083 1.916,-9.187 5.75,-12.312c3.833,-3.125 8.875,-4.688 15.125,-4.688l10,0c6.166,0 11.145,1.813 14.937,5.438c3.792,3.625 5.688,8.395 5.688,14.312l-0,43.625l-8.5,-0l-0,-8.75c-1.917,3 -4.438,5.375 -7.563,7.125c-3.125,1.75 -6.354,2.625 -9.687,2.625l-7.5,-0Zm7.75,-7.875c3.916,0 7.416,-1.208 10.5,-3.625c3.083,-2.417 5.166,-5.625 6.25,-9.625l-0,-4.625c-1.667,-1.583 -3.98,-2.854 -6.938,-3.812c-2.958,-0.959 -5.979,-1.438 -9.062,-1.438l-8,0c-3.417,0 -6.188,0.875 -8.313,2.625c-2.125,1.75 -3.187,4.042 -3.187,6.875l-0,4c-0,2.917 1,5.25 3,7c2,1.75 4.666,2.625 8,2.625l7.75,0Z" style="fill:#4464f9;fill-rule:nonzero;stroke:#123af7;stroke-width:1.52px;"/><path d="M1035.35,522.33c-6.584,-0 -11.313,-1.417 -14.188,-4.25c-2.875,-2.833 -4.312,-7.5 -4.312,-14l-0,-36.125l-11,0l-0,-8l11,0l-0,-18.875l9,0l-0,18.875l16.25,0l-0,8l-16.25,0l-0,36.125c-0,3.667 0.729,6.292 2.187,7.875c1.458,1.583 3.896,2.375 7.313,2.375l6.75,0l-0,8l-6.75,-0Z" style="fill:#4464f9;fill-rule:nonzero;stroke:#123af7;stroke-width:1.52px;"/><path d="M1077.35,523.33c-7,-0 -12.625,-2.062 -16.875,-6.187c-4.25,-4.125 -6.375,-9.605 -6.375,-16.438l-0,-17.875c-0,-7.167 2.125,-12.937 6.375,-17.312c4.25,-4.375 9.875,-6.563 16.875,-6.563l10.25,0c6.666,0 12.041,2.125 16.125,6.375c4.083,4.25 6.125,9.875 6.125,16.875l-0,11l-46.75,0l-0,7.5c-0,4.333 1.312,7.854 3.937,10.563c2.625,2.708 6.063,4.062 10.313,4.062l9.5,0c4.166,0 7.541,-1.146 10.125,-3.437c2.583,-2.292 3.875,-5.355 3.875,-9.188l8.75,0c-0,6.167 -2.084,11.146 -6.25,14.938c-4.167,3.791 -9.667,5.687 -16.5,5.687l-9.5,-0Zm23.5,-37.875l-0,-3.25c-0,-4.583 -1.209,-8.271 -3.625,-11.062c-2.417,-2.792 -5.625,-4.188 -9.625,-4.188l-10.25,0c-4.25,0 -7.688,1.458 -10.313,4.375c-2.625,2.917 -3.937,6.75 -3.937,11.5l-0,2.625l37.75,0Z" style="fill:#4464f9;fill-rule:nonzero;stroke:#123af7;stroke-width:1.52px;"/><path d="M1166.72,522.33c-2.583,-0 -4.583,-0.729 -6,-2.187c-1.416,-1.459 -2.124,-3.48 -2.124,-6.063l-0,-79.25l58.749,0l0,8l-49.5,0l0,30.75l45.75,0l0,8l-45.75,0l0,32.75l49.5,0l0,8l-50.625,-0Z" style="fill:#4464f9;fill-rule:nonzero;stroke:#123af7;stroke-width:1.52px;"/><path d="M1233.1,459.955l8.75,0l0,9.25c1.917,-3 4.417,-5.458 7.5,-7.375c3.084,-1.917 6.167,-2.875 9.25,-2.875l8.5,0c5.75,0 10.396,1.958 13.938,5.875c3.542,3.917 5.312,9.042 5.312,15.375l0,42.125l-9,0l0,-42.375c0,-3.833 -0.958,-6.958 -2.875,-9.375c-1.916,-2.417 -4.458,-3.625 -7.625,-3.625l-8,0c-3.916,0 -7.479,1.542 -10.687,4.625c-3.208,3.083 -5.229,7.042 -6.063,11.875l0,38.875l-9,0l0,-62.375Z" style="fill:#4464f9;fill-rule:nonzero;stroke:#123af7;stroke-width:1.52px;"/><path d="M1324.85,547.705c-5.5,-0 -10.041,-1.479 -13.625,-4.438c-3.583,-2.958 -5.583,-6.854 -6,-11.687l9,-0c0.334,2.5 1.48,4.521 3.438,6.062c1.958,1.542 4.354,2.313 7.187,2.313l10.375,-0c4.334,-0 7.688,-1.438 10.063,-4.313c2.375,-2.875 3.562,-6.895 3.562,-12.062l0,-9.625c-1.833,2.5 -4.229,4.521 -7.187,6.063c-2.958,1.541 -5.813,2.312 -8.563,2.312l-9.125,-0c-4.25,-0 -8.041,-1 -11.375,-3c-3.333,-2 -5.916,-4.792 -7.75,-8.375c-1.833,-3.583 -2.75,-7.75 -2.75,-12.5l0,-14.625c0,-7.417 2.146,-13.417 6.438,-18c4.292,-4.583 9.937,-6.875 16.937,-6.875l8.75,0c2.667,0 5.417,0.75 8.25,2.25c2.834,1.5 5.042,3.417 6.625,5.75l0,-7l8.75,0l0,63.625c0,7.583 -2,13.5 -6,17.75c-4,4.25 -9.541,6.375 -16.625,6.375l-10.375,-0Zm8.25,-33.375c4.167,0 7.73,-1.646 10.688,-4.937c2.958,-3.292 4.646,-7.48 5.062,-12.563l0,-15.375c-0.333,-4.25 -1.895,-7.729 -4.687,-10.437c-2.792,-2.709 -6.104,-4.063 -9.938,-4.063l-8.5,0c-4.416,0 -7.958,1.542 -10.625,4.625c-2.666,3.083 -4,7.167 -4,12.25l0,14.625c0,4.667 1.23,8.479 3.688,11.438c2.458,2.958 5.604,4.437 9.437,4.437l8.875,0Z" style="fill:#4464f9;fill-rule:nonzero;stroke:#123af7;stroke-width:1.52px;"/><path d="M1383.6,450.58c-2,0 -3.625,-0.625 -4.875,-1.875c-1.25,-1.25 -1.875,-2.875 -1.875,-4.875c0,-2 0.625,-3.625 1.875,-4.875c1.25,-1.25 2.875,-1.875 4.875,-1.875c2,0 3.625,0.625 4.875,1.875c1.25,1.25 1.875,2.875 1.875,4.875c0,2 -0.625,3.625 -1.875,4.875c-1.25,1.25 -2.875,1.875 -4.875,1.875Zm-4.5,9.375l9,0l0,62.375l-9,0l0,-62.375Z" style="fill:#4464f9;fill-rule:nonzero;stroke:#123af7;stroke-width:1.52px;"/><path d="M1409.35,459.955l8.75,0l0,9.25c1.917,-3 4.417,-5.458 7.5,-7.375c3.084,-1.917 6.167,-2.875 9.25,-2.875l8.5,0c5.75,0 10.396,1.958 13.938,5.875c3.541,3.917 5.312,9.042 5.312,15.375l0,42.125l-9,0l0,-42.375c0,-3.833 -0.958,-6.958 -2.875,-9.375c-1.916,-2.417 -4.458,-3.625 -7.625,-3.625l-8,0c-3.916,0 -7.479,1.542 -10.687,4.625c-3.209,3.083 -5.229,7.042 -6.063,11.875l0,38.875l-9,0l0,-62.375Z" style="fill:#4464f9;fill-rule:nonzero;stroke:#123af7;stroke-width:1.52px;"/><path d="M1501.6,523.33c-7,-0 -12.625,-2.062 -16.875,-6.187c-4.25,-4.125 -6.375,-9.605 -6.375,-16.438l0,-17.875c0,-7.167 2.125,-12.937 6.375,-17.312c4.25,-4.375 9.875,-6.563 16.875,-6.563l10.25,0c6.667,0 12.042,2.125 16.125,6.375c4.084,4.25 6.125,9.875 6.125,16.875l0,11l-46.75,0l0,7.5c0,4.333 1.313,7.854 3.938,10.563c2.625,2.708 6.062,4.062 10.312,4.062l9.5,0c4.167,0 7.542,-1.146 10.125,-3.437c2.584,-2.292 3.875,-5.355 3.875,-9.188l8.75,0c0,6.167 -2.083,11.146 -6.25,14.938c-4.166,3.791 -9.666,5.687 -16.5,5.687l-9.5,-0Zm23.5,-37.875l0,-3.25c0,-4.583 -1.208,-8.271 -3.625,-11.062c-2.416,-2.792 -5.625,-4.188 -9.625,-4.188l-10.25,0c-4.25,0 -7.687,1.458 -10.312,4.375c-2.625,2.917 -3.938,6.75 -3.938,11.5l0,2.625l37.75,0Z" style="fill:#4464f9;fill-rule:nonzero;stroke:#123af7;stroke-width:1.52px;"/></g><g><path d="M-0.003,273.83c6.7,-0 12.944,-3.056 18.73,-9.167c7.309,-7.639 10.963,-18.333 10.963,-32.083l0,-184.48c0,-32.083 13.553,-48.125 40.657,-48.125l49.793,0l-0,36.667l-5.939,-0c-17.359,-0 -26.038,10.312 -26.038,30.938l-0,155.833c-0,16.042 -4.721,28.646 -14.161,37.813c-6.7,7.639 -14.162,11.84 -22.384,12.604c4.263,0.764 8.375,1.91 12.334,3.437c16.14,9.167 24.211,24.445 24.211,45.834l-0,155.833c-0,21.389 8.679,32.084 26.038,32.084l5.939,-0l-0,36.667l-49.793,-0c-27.104,-0 -40.657,-16.042 -40.657,-48.126l0,-184.479c0,-11.458 -2.817,-21.198 -8.451,-29.219c-5.634,-8.021 -12.714,-12.031 -21.242,-12.031Z" style="fill:#4464f9;fill-rule:nonzero;stroke:#123af7;stroke-width:1px;"/><rect x="154.858" y="67.58" width="49.336" height="412.501" style="fill:#4464f9;fill-rule:nonzero;stroke:#123af7;stroke-width:1px;"/><path d="M238.912,409.038l-0,-71.041l98.215,-64.167l-98.215,-65.313l-0,-69.896l192.319,135.209l-192.319,135.208Z" style="fill:#4464f9;fill-rule:nonzero;stroke:#123af7;stroke-width:1px;"/></g></g></svg>